<?xml version="1.0" encoding="utf-8"?>
<!-- Generator: Adobe Illustrator 15.1.0, SVG Export Plug-In . SVG Version: 6.00 Build 0)  -->
<!DOCTYPE svg PUBLIC "-//W3C//DTD SVG 1.1//EN" "http://www.w3.org/Graphics/SVG/1.1/DTD/svg11.dtd">
<svg version="1.1" id="Layer_1" xmlns="http://www.w3.org/2000/svg" xmlns:xlink="http://www.w3.org/1999/xlink" x="0px" y="0px"
	 width="153px" height="136px" viewBox="0 0 153 136" enable-background="new 0 0 153 136" xml:space="preserve">
<title>Layer 1</title>
<path d="M22.596,22.596h56.491c6.239,0,11.298-5.059,11.298-11.298C90.385,5.059,85.326,0,79.087,0H22.596
	C10.117,0,0,10.117,0,22.596v90.384c0,12.479,10.117,22.597,22.596,22.597h90.384c12.479,0,22.597-10.116,22.597-22.597V90.385
	c0-6.24-5.058-11.298-11.298-11.298s-11.299,5.058-11.299,11.298v22.596H22.596V22.596z"/>
<path fill="#00BF24" d="M149.215,3.309c-4.412-4.412-11.564-4.412-15.979,0l-59.799,59.8l-8.958-8.958
	c-4.412-4.412-11.566-4.412-15.978,0c-4.412,4.413-4.412,11.566,0,15.979l16.947,16.947c2.119,2.118,4.993,3.309,7.989,3.309
	c2.997,0,5.87-1.19,7.989-3.309l67.788-67.789C153.627,14.875,153.627,7.721,149.215,3.309z"/>
</svg>
