<?xml version="1.0" encoding="utf-8"?>
<!-- Generator: Adobe Illustrator 15.1.0, SVG Export Plug-In . SVG Version: 6.00 Build 0)  -->
<!DOCTYPE svg PUBLIC "-//W3C//DTD SVG 1.1//EN" "http://www.w3.org/Graphics/SVG/1.1/DTD/svg11.dtd">
<svg version="1.1" id="Layer_1" xmlns="http://www.w3.org/2000/svg" xmlns:xlink="http://www.w3.org/1999/xlink" x="0px" y="0px"
	 width="153px" height="136px" viewBox="0 0 153 136" enable-background="new 0 0 153 136" xml:space="preserve">
<title>Layer 1</title>
<g>
	<polygon fill="none" points="79.087,22.596 56.49,22.596 22.596,22.596 22.596,90.375 22.597,90.385 22.597,112.98 112.98,112.98 
		112.98,90.385 112.98,22.596 	"/>
	<path d="M112.98,0H79.087H56.49H22.596C10.117,0,0,10.117,0,22.596v67.789v22.596c0,1.17,0.089,2.319,0.26,3.441
		c0.114,0.748,0.265,1.484,0.451,2.206c0.093,0.361,0.194,0.719,0.304,1.072c1.871,6.015,6.186,10.951,11.784,13.648
		c0.659,0.317,1.335,0.604,2.027,0.857c2.422,0.887,5.039,1.371,7.769,1.371h0h90.384c12.48,0,22.597-10.116,22.597-22.597V90.385
		V22.596C135.577,10.117,125.461,0,112.98,0z M112.98,112.98H22.597V90.385c0-0.003,0-0.007,0-0.01V22.596H56.49h22.597h33.894
		v67.789V112.98z"/>
</g>
</svg>
